<?xml version="1.0" encoding="UTF-8"?>
<svg version="1.1" xmlns="http://www.w3.org/2000/svg" width="253" height="55">
<path d="M0 0 C1.72694675 -0.13609913 3.45704722 -0.23249228 5.1875 -0.3125 C6.15042969 -0.37050781 7.11335938 -0.42851563 8.10546875 -0.48828125 C11 0 11 0 13.13745117 2.49511719 C17.03051263 5.90175348 19.69500052 5.66993755 24.6953125 5.56640625 C25.52457245 5.57204086 26.3538324 5.57767548 27.20822144 5.58348083 C29.84772764 5.59990143 32.48555244 5.58440313 35.125 5.5625 C37.77142754 5.54591476 40.41675778 5.53678309 43.0632019 5.55223083 C44.70702448 5.56152515 46.35107889 5.55229779 47.99465942 5.52259827 C53.51254089 5.54913551 53.51254089 5.54913551 56.02929688 7.87695312 C57.87665966 11.91736228 56.27121223 15.92543026 55 20 C54 21.66666667 53 23.33333333 52 25 C51.62341604 26.63647884 51.29477122 28.28432475 51 29.9375 C49.98687837 35.43613593 48.66239429 39.29267613 44.6875 43.375 C39.62372694 46.50909995 32.69371399 45.2807859 27 45 C28.875 38.125 28.875 38.125 30 37 C31.68183948 36.76712992 33.3712416 36.58735834 35.0625 36.4375 C35.98160156 36.35371094 36.90070313 36.26992188 37.84765625 36.18359375 C38.55792969 36.12300781 39.26820312 36.06242187 40 36 C40.66 34.02 41.32 32.04 42 30 C38.7 30 35.4 30 32 30 C32.99 27.03 33.98 24.06 35 21 C38.63 21 42.26 21 46 21 C46.33 18.69 46.66 16.38 47 14 C41.06 14.33 35.12 14.66 29 15 C28.7525 16.44375 28.505 17.8875 28.25 19.375 C27.16287332 24.88941072 25.25030145 29.86581709 23 35 C20.36 35 17.72 35 15 35 C15.28609307 33.60301364 15.57916905 32.2074567 15.875 30.8125 C16.03742187 30.03519531 16.19984375 29.25789063 16.3671875 28.45703125 C17 26 17 26 19 21 C8.11 21 -2.78 21 -14 21 C-14 19.68 -14 18.36 -14 17 C-2.45 17 9.1 17 21 17 C21 16.34 21 15.68 21 15 C19.80375 15.12375 18.6075 15.2475 17.375 15.375 C14.73547972 15.39819438 13.46074018 15.36970236 11.37890625 13.69921875 C10.41747873 12.6075165 9.46430799 11.50848732 8.51953125 10.40234375 C6.01881553 8.09448528 3.27531125 8.13101245 0 8 C0 5.36 0 2.72 0 0 Z " fill="#FFFFFF" transform="translate(30,0)"/>
<path d="M0 0 C1.11503906 0.00644531 2.23007813 0.01289063 3.37890625 0.01953125 C4.53777344 0.03628906 5.69664063 0.05304687 6.890625 0.0703125 C8.65212891 0.08384766 8.65212891 0.08384766 10.44921875 0.09765625 C13.34656036 0.12121187 16.24348941 0.15410598 19.140625 0.1953125 C18.265625 6.0703125 18.265625 6.0703125 17.140625 7.1953125 C15.58113958 7.35217499 14.01519832 7.44607889 12.44921875 7.51171875 C11.50498047 7.55361328 10.56074219 7.59550781 9.58789062 7.63867188 C8.09805664 7.69764648 8.09805664 7.69764648 6.578125 7.7578125 C5.58103516 7.80099609 4.58394531 7.84417969 3.55664062 7.88867188 C1.0847835 7.99511548 -1.3871781 8.09713178 -3.859375 8.1953125 C-4.519375 9.5153125 -5.179375 10.8353125 -5.859375 12.1953125 C-4.59480469 12.14890625 -3.33023438 12.1025 -2.02734375 12.0546875 C-0.36721109 12.01717038 1.29294708 11.98077015 2.953125 11.9453125 C3.78650391 11.91179688 4.61988281 11.87828125 5.47851562 11.84375 C11.58883345 11.74559228 11.58883345 11.74559228 14.2734375 13.93359375 C15.3392615 16.71337798 15.17608972 17.83977446 14.203125 20.6328125 C13.96722656 21.37402344 13.73132813 22.11523438 13.48828125 22.87890625 C11.53160671 26.24211785 9.66858716 28.55936396 6.140625 30.1953125 C1.66465486 30.79950682 -2.72848999 30.66647042 -7.234375 30.5078125 C-8.44738281 30.48525391 -9.66039063 30.46269531 -10.91015625 30.43945312 C-13.89450002 30.3807062 -16.87629567 30.29860472 -19.859375 30.1953125 C-18.984375 24.3203125 -18.984375 24.3203125 -17.859375 23.1953125 C-16.22680742 23.03816596 -14.58802162 22.94445836 -12.94921875 22.87890625 C-11.95986328 22.83701172 -10.97050781 22.79511719 -9.95117188 22.75195312 C-8.91025391 22.71263672 -7.86933594 22.67332031 -6.796875 22.6328125 C-5.75208984 22.58962891 -4.70730469 22.54644531 -3.63085938 22.50195312 C-1.04050616 22.39550025 1.54994686 22.2934849 4.140625 22.1953125 C4.470625 21.5353125 4.800625 20.8753125 5.140625 20.1953125 C4.03203125 20.15792969 2.9234375 20.12054688 1.78125 20.08203125 C0.31767526 20.01635802 -1.14586491 19.94991115 -2.609375 19.8828125 C-3.70378906 19.84897461 -3.70378906 19.84897461 -4.8203125 19.81445312 C-9.02358663 19.60428942 -11.91172988 19.34754996 -14.859375 16.1953125 C-15.91150267 11.16848028 -13.93294097 8.05321387 -11.34375 3.9296875 C-8.12890509 0.17339503 -4.76167992 -0.04858857 0 0 Z " fill="#FFFFFF" transform="translate(101.859375,14.8046875)"/>
<path d="M0 0 C0.96292969 -0.020625 1.92585938 -0.04125 2.91796875 -0.0625 C3.84222656 -0.06765625 4.76648438 -0.0728125 5.71875 -0.078125 C6.56373047 -0.0874707 7.40871094 -0.09681641 8.27929688 -0.10644531 C11.00095198 0.33040786 11.89662485 1.0352566 13.5 3.25 C13.5 11.13712323 10.1134327 20.17660314 5.05859375 26.12109375 C0.56018646 29.55188274 -4.85518037 28.8583918 -10.25 28.6875 C-11.30316406 28.68169922 -12.35632813 28.67589844 -13.44140625 28.66992188 C-21.20464877 28.54535123 -21.20464877 28.54535123 -23.5 26.25 C-23.36761609 18.04219755 -20.96900263 9.26637977 -15.51953125 2.95703125 C-11.05679154 -0.81514912 -5.53444344 0.02963557 0 0 Z M-9.5 8.25 C-10.4590625 10.35375 -10.4590625 10.35375 -11.4375 12.5 C-11.97697266 13.68335938 -11.97697266 13.68335938 -12.52734375 14.890625 C-13.65875123 17.47268112 -13.65875123 17.47268112 -14.5 21.25 C-9.88 21.25 -5.26 21.25 -0.5 21.25 C0.325 19.290625 1.15 17.33125 2 15.3125 C2.69609375 13.65927734 2.69609375 13.65927734 3.40625 11.97265625 C4.56212791 9.58436831 4.56212791 9.58436831 4.5 8.25 C-0.12 8.25 -4.74 8.25 -9.5 8.25 Z " fill="#FFFFFF" transform="translate(171.5,16.75)"/>
<path d="M0 0 C3.58326501 -0.05814085 7.16640838 -0.09364357 10.75 -0.125 C11.76578125 -0.14175781 12.7815625 -0.15851562 13.828125 -0.17578125 C14.8078125 -0.18222656 15.7875 -0.18867188 16.796875 -0.1953125 C17.69760742 -0.20578613 18.59833984 -0.21625977 19.52636719 -0.22705078 C22.13926856 0.01278324 23.75664666 0.67687936 26 2 C26.72354114 8.65657851 24.49149279 13.37427078 21 19 C20.1646875 19.79083984 20.1646875 19.79083984 19.3125 20.59765625 C18.879375 21.06042969 18.44625 21.52320312 18 22 C18.23283149 25.14921909 18.23283149 25.14921909 19 28 C15.7 28 12.4 28 9 28 C8.34 26.02 7.68 24.04 7 22 C4.69 21.67 2.38 21.34 0 21 C-0.66 23.31 -1.32 25.62 -2 28 C-4.97 28 -7.94 28 -11 28 C-9.92346604 24.83087756 -8.83902186 21.66483088 -7.75 18.5 C-7.44964844 17.613125 -7.14929688 16.72625 -6.83984375 15.8125 C-4.93182122 10.29141354 -2.72815761 5.16659937 0 0 Z M5 7 C4.34 9.31 3.68 11.62 3 14 C6.96 14 10.92 14 15 14 C15.66 12.02 16.32 10.04 17 8 C15.94021067 6.71387324 15.94021067 6.71387324 13.49609375 6.90234375 C12.48675781 6.91394531 11.47742188 6.92554688 10.4375 6.9375 C9.42558594 6.94652344 8.41367188 6.95554687 7.37109375 6.96484375 C6.58863281 6.97644531 5.80617187 6.98804688 5 7 Z " fill="#FFFFFF" transform="translate(193,17)"/>
<path d="M0 0 C1.5631897 0.00785522 1.5631897 0.00785522 3.15795898 0.01586914 C4.28266602 0.0190918 5.40737305 0.02231445 6.56616211 0.02563477 C7.75016602 0.03401367 8.93416992 0.04239258 10.15405273 0.05102539 C11.34192383 0.05553711 12.52979492 0.06004883 13.75366211 0.06469727 C16.69967499 0.07652864 19.64558954 0.09301252 22.59155273 0.11352539 C22.26155273 2.42352539 21.93155273 4.73352539 21.59155273 7.11352539 C15.65155273 7.44352539 9.71155273 7.77352539 3.59155273 8.11352539 C3.26155273 8.77352539 2.93155273 9.43352539 2.59155273 10.11352539 C6.88155273 10.44352539 11.17155273 10.77352539 15.59155273 11.11352539 C14.59155273 17.11352539 14.59155273 17.11352539 13.59155273 18.11352539 C11.06105871 18.18666106 8.55850437 18.20600066 6.02905273 18.17602539 C5.31813477 18.17151367 4.6072168 18.16700195 3.87475586 18.16235352 C2.1136526 18.15053403 0.35259238 18.13259802 -1.40844727 18.11352539 C-1.40844727 19.10352539 -1.40844727 20.09352539 -1.40844727 21.11352539 C4.20155273 21.11352539 9.81155273 21.11352539 15.59155273 21.11352539 C13.59155273 28.11352539 13.59155273 28.11352539 12.59155273 29.11352539 C10.73785662 29.20090184 8.88087733 29.22050692 7.02514648 29.21118164 C5.90043945 29.20795898 4.77573242 29.20473633 3.61694336 29.20141602 C2.43293945 29.19303711 1.24893555 29.1846582 0.02905273 29.17602539 C-1.15881836 29.17151367 -2.34668945 29.16700195 -3.57055664 29.16235352 C-6.51656953 29.15052214 -9.46248407 29.13403826 -12.40844727 29.11352539 C-11.84052816 22.70668803 -9.75006736 17.1990129 -7.40844727 11.23852539 C-6.85543945 9.79606445 -6.85543945 9.79606445 -6.29125977 8.32446289 C-3.12668263 0.14738038 -3.12668263 0.14738038 0 0 Z " fill="#FFFFFF" transform="translate(229.408447265625,16.886474609375)"/>
<path d="M0 0 C1.084021 0.00523682 2.16804199 0.01047363 3.28491211 0.01586914 C5.03964844 0.02070313 5.03964844 0.02070313 6.82983398 0.02563477 C8.67738281 0.03820312 8.67738281 0.03820312 10.56225586 0.05102539 C12.41560547 0.05779297 12.41560547 0.05779297 14.30639648 0.06469727 C17.37089703 0.07652931 20.43530307 0.09301366 23.49975586 0.11352539 C23.16975586 2.42352539 22.83975586 4.73352539 22.49975586 7.11352539 C19.19975586 7.44352539 15.89975586 7.77352539 12.49975586 8.11352539 C12.00604492 9.47348633 11.51233398 10.83344727 11.00366211 12.23461914 C10.35667259 14.00680783 9.70952923 15.77894036 9.06225586 17.55102539 C8.73676758 18.44885742 8.4112793 19.34668945 8.07592773 20.27172852 C7.60703125 21.55273438 7.60703125 21.55273438 7.12866211 22.85961914 C6.69662476 24.04575806 6.69662476 24.04575806 6.25585938 25.25585938 C5.49975586 27.11352539 5.49975586 27.11352539 4.49975586 28.11352539 C1.82916735 28.254677 -0.82456652 28.15599646 -3.50024414 28.11352539 C-2.76976113 23.42548883 -1.13387529 19.20466984 0.56225586 14.80102539 C0.98474609 13.69017578 0.98474609 13.69017578 1.41577148 12.55688477 C2.10694161 10.74109884 2.80287275 8.9271264 3.49975586 7.11352539 C0.52975586 7.11352539 -2.44024414 7.11352539 -5.50024414 7.11352539 C-3.27746443 0.14881564 -3.27746443 0.14881564 0 0 Z " fill="#FFFFFF" transform="translate(128.500244140625,16.886474609375)"/>
<path d="M0 0 C7.26 0 14.52 0 22 0 C22 1.32 22 2.64 22 4 C14.74 4 7.48 4 0 4 C0 2.68 0 1.36 0 0 Z " fill="#FFFFFF" transform="translate(14,24)"/>
<path d="M0 0 C6.93 0 13.86 0 21 0 C21 1.32 21 2.64 21 4 C14.07 4 7.14 4 0 4 C0 2.68 0 1.36 0 0 Z " fill="#FFFFFF" transform="translate(18,38)"/>
<path d="M0 0 C5.94 0 11.88 0 18 0 C18 1.32 18 2.64 18 4 C12.06 4 6.12 4 0 4 C0 2.68 0 1.36 0 0 Z " fill="#FFFFFF" transform="translate(0,31)"/>
<path d="M0 0 C2.97 0 5.94 0 9 0 C8.34 2.64 7.68 5.28 7 8 C4.03 8 1.06 8 -2 8 C-1.34 5.36 -0.68 2.72 0 0 Z " fill="#FFFFFF" transform="translate(43,37)"/>
<path d="M0 0 C0.33 1.65 0.66 3.3 1 5 C-1.375 6.0625 -1.375 6.0625 -4 7 C-4.66 6.67 -5.32 6.34 -6 6 C-6 4.02 -6 2.04 -6 0 C-3.50907189 -1.24546405 -2.58919267 -0.7767578 0 0 Z " fill="#FFFFFF" transform="translate(47,48)"/>
<path d="M0 0 C0.33 1.65 0.66 3.3 1 5 C-0.65 5.66 -2.3 6.32 -4 7 C-6 5 -6 5 -6.125 2.375 C-6.08375 1.59125 -6.0425 0.8075 -6 0 C-3.50907189 -1.24546405 -2.58919267 -0.7767578 0 0 Z " fill="#FFFFFF" transform="translate(62,48)"/>
<path d="M0 0 C3.63 0 7.26 0 11 0 C11 1.32 11 2.64 11 4 C7.37 4 3.74 4 0 4 C0 2.68 0 1.36 0 0 Z " fill="#FFFFFF" transform="translate(21,31)"/>
<path d="M0 0 C2.64 0 5.28 0 8 0 C8 1.32 8 2.64 8 4 C5.36 4 2.72 4 0 4 C0 2.68 0 1.36 0 0 Z " fill="#FFFFFF" transform="translate(7,38)"/>
<path d="M0 0 C2.64 0 5.28 0 8 0 C8 1.32 8 2.64 8 4 C5.36 4 2.72 4 0 4 C0 2.68 0 1.36 0 0 Z " fill="#FFFFFF" transform="translate(3,24)"/>
</svg>
