<svg width="61" height="54" viewBox="0 0 61 54" fill="none" xmlns="http://www.w3.org/2000/svg">
<g clipPath="url(#clip0_108_99529)">
<path d="M60.4471 24.9702C60.3501 23.422 60.1208 21.8827 59.7591 20.3704C59.6621 19.9924 59.5739 19.6143 59.4681 19.2453L59.133 18.1381L58.7361 17.0489C58.6038 16.6888 58.445 16.3378 58.3039 15.9777C57.078 13.1602 55.3846 10.5588 53.312 8.34445C51.2394 6.13008 48.8052 4.28477 46.1593 2.90754C43.4957 1.53931 40.6294 0.630163 37.7012 0.225095C36.2372 0.0270623 34.7555 -0.0449497 33.2914 0.00905925L32.189 0.0630682C31.8274 0.0990742 31.4569 0.13508 31.0953 0.171086C30.7337 0.198091 30.3633 0.270103 30.0017 0.324112C29.6401 0.387122 29.2785 0.43213 28.9169 0.522145L27.8409 0.756184L26.7825 1.05323L26.5179 1.12525L26.2533 1.21526L25.733 1.39529L25.2126 1.57532C25.0362 1.63833 24.8687 1.71034 24.7011 1.77335L24.1895 1.98039C24.022 2.0524 23.8456 2.11541 23.6868 2.19642L22.6902 2.6645C22.0376 3.00656 21.3849 3.33961 20.7675 3.72668C18.2539 5.22993 16.0314 7.20126 14.1616 9.46063C16.1196 7.29127 18.4127 5.43696 20.9527 4.05973C21.5789 3.69967 22.2404 3.40262 22.8842 3.09657L23.8809 2.6825C24.0484 2.61049 24.216 2.55648 24.3836 2.49347L24.8863 2.31344C25.0539 2.25943 25.2214 2.19642 25.3978 2.13341L25.9182 1.98039L26.4297 1.82736L26.6855 1.75535L26.9501 1.69234L27.9908 1.4493L29.0492 1.26027C29.402 1.18826 29.7547 1.16125 30.1075 1.11624C30.4603 1.07124 30.8131 1.02623 31.1747 1.01723C31.5275 0.999224 31.8891 0.97222 32.2419 0.954217L33.3091 0.945215C34.729 0.963218 36.149 1.09824 37.5425 1.34128C40.3295 1.84537 43.0195 2.83553 45.4713 4.23976C47.9144 5.653 50.1193 7.4803 51.9538 9.62266C53.7971 11.765 55.2435 14.2224 56.2578 16.8509C56.3724 17.1839 56.5047 17.508 56.6105 17.841L56.928 18.8492L57.1926 19.8664C57.2808 20.2084 57.3426 20.5505 57.4131 20.8925C57.6777 22.2698 57.8276 23.665 57.8541 25.0692C57.9158 27.8687 57.4837 30.6592 56.6105 33.2966C55.7198 35.916 54.388 38.3735 52.6946 40.5248C51.0012 42.6762 48.9375 44.5035 46.662 45.9437C46.3709 46.1147 46.0887 46.3038 45.7977 46.4658L44.9157 46.9519L44.0073 47.393C43.7074 47.537 43.3899 47.663 43.0812 47.798C41.8376 48.3021 40.5588 48.7072 39.2623 48.9952C37.9658 49.2923 36.6341 49.4543 35.3111 49.5173C33.9882 49.5803 32.6564 49.5353 31.3335 49.3823C28.7052 49.0582 26.1475 48.2931 23.7927 47.1139C21.4378 45.9347 19.2858 44.3684 17.4602 42.4691C15.6345 40.5788 14.144 38.3735 13.068 35.9971C12.0008 33.6387 11.3482 31.1092 11.1277 28.5438C11.1277 28.5348 11.1277 28.5258 11.1277 28.5258L11.0571 28.4718L9.2138 27.0226L9.36374 22.9269L9.6636 22.6208L15.317 25.3483C15.317 25.3483 15.6169 25.6543 15.7668 25.1953V23.53C15.7668 23.53 15.7668 23.377 15.6169 23.2239C15.4669 23.0709 12.7946 21.0996 12.7946 21.0996C12.7946 21.0996 12.6446 21.0996 12.6446 20.4965C12.6446 19.8934 12.6446 19.5873 12.6446 19.5873C12.6446 19.5873 12.6446 19.2813 12.3448 19.2813C12.0449 19.2813 11.1541 19.2813 11.1541 19.2813C11.1541 19.2813 11.0042 19.2813 11.0042 19.4343C11.0042 19.5873 10.8543 19.5873 10.8543 19.5873L9.51367 18.6782C9.51367 18.6782 9.38138 18.6152 9.37256 18.0571C9.36374 17.499 9.36374 17.3189 9.36374 17.3189C9.36374 17.3189 9.37256 16.7698 9.31082 16.4368C9.24908 16.1037 8.8522 14.3935 8.38476 13.8354C7.91732 13.2683 7.7321 13.9884 7.7321 13.9884C7.7321 13.9884 7.13237 15.3026 7.02653 15.8967C6.91188 16.4908 6.8766 17.1209 6.86778 18.1381V18.3091C6.86778 18.3091 6.8766 18.4351 6.7443 18.5431C6.61201 18.6512 6.00345 19.1192 6.00345 19.1192L5.41254 19.5783C5.41254 19.5783 5.28024 19.6503 5.28024 19.5243V19.4343C5.28024 19.4343 5.23615 19.2363 5.05975 19.2363H3.825C3.825 19.2363 3.65743 19.2723 3.65743 19.4703C3.65743 19.6683 3.65743 20.4965 3.65743 20.4965V20.7575C3.65743 20.7575 3.66625 20.9285 3.55159 21.0186C3.43694 21.1086 0.623475 23.2869 0.623475 23.2869C0.623475 23.2869 0.5 23.3679 0.5 23.593L0.50882 25.1863C0.50882 25.1863 0.49118 25.5193 0.808687 25.5373L6.68257 22.6388L6.98243 22.9449L7.13237 27.1936L5.25378 29.1109L5.20969 29.1559V29.1649C5.61539 32.4325 6.58555 35.619 8.05843 38.5175C9.53131 41.443 11.4981 44.0804 13.8353 46.2948C16.1637 48.5181 18.8625 50.3094 21.7641 51.6057C24.6658 52.9019 27.7703 53.676 30.9013 53.919C32.4712 54.0361 34.0411 54.0181 35.5933 53.874C37.1544 53.73 38.6979 53.469 40.206 53.0549C41.7142 52.6498 43.187 52.1097 44.607 51.4526C44.9598 51.2816 45.3126 51.1196 45.6565 50.9395L46.6884 50.3815L47.6939 49.7783C48.029 49.5713 48.3465 49.3463 48.6729 49.1302C51.2394 47.3479 53.506 45.1426 55.3405 42.6042C57.1662 40.0657 58.5597 37.2123 59.4416 34.2148C60.2971 31.2173 60.6499 28.0667 60.4471 24.9702Z" fill="white"/>
<path d="M22.1776 12.269H28.4748L28.2279 13.7633H25.9701L24.9823 19.8753H23.2095L24.1973 13.7633H21.9307L22.1776 12.269Z" fill="white"/>
<path d="M29.0579 14.1771H30.8395L29.9046 19.875H28.123L29.0579 14.1771ZM29.2696 12.6378C29.3402 12.1607 29.8076 11.7737 30.3103 11.7737C30.813 11.7737 31.1658 12.1607 31.1041 12.6378C31.0335 13.1149 30.5749 13.502 30.0722 13.502C29.5606 13.502 29.199 13.1149 29.2696 12.6378Z" fill="white"/>
<path d="M31.9671 14.177H33.6604L33.4929 15.2211H33.5546C33.8986 14.528 34.5424 14.0959 35.3185 14.0959C36.0858 14.0959 36.615 14.537 36.6591 15.2211H36.7209C37.0384 14.546 37.7616 14.0959 38.5906 14.0959C39.6402 14.0959 40.2487 14.8341 40.0547 16.0313L39.4285 19.8659H37.6557L38.2202 16.4453C38.2996 15.8782 38.035 15.5722 37.5764 15.5722C37.0913 15.5722 36.7385 15.9233 36.6591 16.4633L36.0947 19.8659H34.3837L34.9569 16.4273C35.0363 15.8962 34.7805 15.5722 34.3131 15.5722C33.8545 15.5722 33.4664 15.9323 33.387 16.4993L32.8226 19.8749H31.041L31.9671 14.177Z" fill="white"/>
<path d="M40.761 17.0485C41.0521 15.2842 42.3309 14.105 44.0155 14.105C45.603 14.105 46.5467 15.1402 46.238 17.0125L46.1675 17.4625H42.4456L42.4368 17.5255C42.3221 18.2457 42.6573 18.6687 43.354 18.6687C43.8126 18.6687 44.2183 18.4707 44.4212 18.0836L46.044 18.1286C45.6471 19.2538 44.5799 19.974 43.1071 19.974C41.3608 19.983 40.4612 18.8668 40.761 17.0485ZM44.6858 16.4094C44.774 15.8243 44.4388 15.4102 43.8567 15.4102C43.2835 15.4102 42.7719 15.8423 42.6484 16.4094H44.6858Z" fill="white"/>
<path d="M19.1884 31.4331H25.4856L25.2386 32.9274H22.9808L21.993 39.0394H20.2203L21.2081 32.9274H18.9414L19.1884 31.4331Z" fill="white"/>
<path d="M25.4856 33.3322H27.2143L27.0467 34.3674H27.1084C27.4436 33.6113 27.9728 33.2512 28.599 33.2512C28.8812 33.2512 29.1458 33.3232 29.3398 33.4583L28.5813 34.9435C28.4402 34.8715 28.2638 34.8085 28.0521 34.8085C27.4965 34.8085 26.9673 35.2496 26.8439 35.9337L26.3411 39.0302H24.5596L25.4856 33.3322Z" fill="white"/>
<path d="M28.8898 37.455C29.1014 36.1948 30.1069 35.7627 31.2534 35.6727C32.2148 35.5917 32.6028 35.5107 32.6646 35.1686V35.1506C32.7263 34.7725 32.4882 34.5565 32.056 34.5565C31.5886 34.5565 31.2446 34.7725 31.1123 35.1416L29.4807 35.0786C29.7894 34.0434 30.7683 33.2693 32.2765 33.2693C33.6876 33.2693 34.6402 33.9624 34.4373 35.1686L33.8023 39.0483H32.1266L32.2589 38.2561H32.2148C31.8179 38.8412 31.227 39.1473 30.4508 39.1473C29.3837 39.1383 28.7045 38.5802 28.8898 37.455ZM32.3735 37.0139L32.4529 36.4738C32.2412 36.5818 31.8091 36.6448 31.4827 36.7079C30.9624 36.7889 30.636 37.0049 30.5831 37.374C30.5214 37.743 30.7772 37.9501 31.1917 37.9501C31.7561 37.9501 32.2765 37.572 32.3735 37.0139Z" fill="white"/>
<path d="M38.1853 39.0393H36.1479L35.1689 33.3413H37.0387L37.4356 37.266H37.4973L39.1642 33.3413H41.0428L38.1853 39.0393Z" fill="white"/>
<path d="M40.8503 36.2128C41.1413 34.4485 42.4202 33.2693 44.1047 33.2693C45.6923 33.2693 46.636 34.3045 46.3273 36.1768L46.2567 36.6268H42.5348L42.526 36.6899C42.4114 37.41 42.7465 37.833 43.4433 37.833C43.9019 37.833 44.3076 37.635 44.5104 37.248L46.1332 37.293C45.7364 38.4181 44.6692 39.1383 43.1963 39.1383C41.4412 39.1473 40.5504 38.0311 40.8503 36.2128ZM44.7662 35.5737C44.8544 34.9886 44.5192 34.5745 43.9372 34.5745C43.3639 34.5745 42.8523 35.0066 42.7289 35.5737H44.7662Z" fill="white"/>
<path d="M48.5491 39.0394H46.7676L48.0023 31.4331H49.7839L48.5491 39.0394Z" fill="white"/>
<path d="M30.9883 29.7677C31.0677 29.3717 31.1735 29.0116 31.297 28.6966C31.4204 28.3815 31.5792 28.0935 31.7732 27.8324C31.9673 27.5714 32.2054 27.3373 32.4788 27.1213C32.761 26.9053 33.0874 26.6982 33.4666 26.4912C33.8988 26.2662 34.2604 26.0771 34.5514 25.9241C34.8425 25.7801 35.063 25.6451 35.2305 25.528C35.3981 25.411 35.5216 25.303 35.5833 25.186C35.6539 25.069 35.6891 24.9429 35.6891 24.7899C35.6891 24.6639 35.6627 24.5559 35.6098 24.4569C35.5569 24.3668 35.4775 24.2858 35.3716 24.2318C35.2658 24.1778 35.1335 24.1508 34.9748 24.1508C34.8248 24.1508 34.6837 24.1688 34.5338 24.2138C34.3927 24.2588 34.2515 24.3218 34.1104 24.4028C33.9693 24.4839 33.8282 24.5829 33.6959 24.6999C33.5548 24.8169 33.4137 24.9429 33.2637 25.078L32.3289 23.5927C32.4964 23.4487 32.6993 23.3047 32.9374 23.1696C33.1756 23.0256 33.449 22.8996 33.74 22.7826C34.0311 22.6656 34.3486 22.5755 34.6837 22.5035C35.0189 22.4315 35.354 22.3955 35.6891 22.3955C36.1919 22.3955 36.6064 22.4675 36.9327 22.6205C37.259 22.7646 37.5148 22.9716 37.6824 23.2416C37.8588 23.5117 37.9382 23.8177 37.9382 24.1868C37.9382 24.5199 37.8852 24.8079 37.7882 25.069C37.6824 25.33 37.5501 25.564 37.3737 25.7621C37.1973 25.9601 37.0033 26.1401 36.7828 26.3022C36.5623 26.4642 36.333 26.6172 36.0949 26.7612C35.9714 26.8332 35.8391 26.9143 35.6891 27.0043C35.5392 27.0853 35.3981 27.1843 35.257 27.2833C35.1159 27.3823 34.9748 27.4904 34.8336 27.5984C34.6925 27.7064 34.5691 27.8234 34.4632 27.9404H37.3208L36.9504 29.7497H30.9883V29.7677Z" fill="white"/>
</g>
<defs>
<clipPath id="clip0_108_99529">
<rect width="30" height="54" fill="white" transform="translate(0.5)"/>
</clipPath>
</defs>
</svg>
